<svg xmlns="http://www.w3.org/2000/svg" xmlns:xlink="http://www.w3.org/1999/xlink" width="50" zoomAndPan="magnify" viewBox="0 0 37.5 37.499999" height="50" preserveAspectRatio="xMidYMid meet" version="1.0"><defs><clipPath id="id1"><path d="M 3.75 1 L 36 1 L 36 37.007812 L 3.75 37.007812 Z M 3.75 1 " clip-rule="nonzero"/></clipPath><clipPath id="id2"><path d="M 3.75 0.644531 L 26 0.644531 L 26 23 L 3.75 23 Z M 3.75 0.644531 " clip-rule="nonzero"/></clipPath></defs><g clip-path="url(#id1)"><path fill="#955959" d="M 36 1.984375 C 35.980469 1.992188 23.382812 7.386719 13.5625 36.019531 L 3.75 14.761719 L 3.75 36.132812 C 3.75 36.828125 4.3125 37.394531 5.003906 37.394531 L 24.585938 37.394531 C 25.277344 37.394531 25.839844 36.828125 25.839844 36.132812 L 25.839844 17.445312 C 29.84375 7.992188 36 1.984375 36 1.984375 " fill-opacity="1" fill-rule="nonzero"/></g><g clip-path="url(#id2)"><path fill="#955959" d="M 13.25 22.089844 C 13.25 22.089844 17.84375 12.171875 25.839844 6.234375 L 25.839844 1.910156 C 25.839844 1.214844 25.277344 0.648438 24.585938 0.648438 L 5.003906 0.648438 C 4.3125 0.648438 3.75 1.214844 3.75 1.910156 L 3.75 8.21875 L 13.25 22.089844 " fill-opacity="1" fill-rule="nonzero"/></g></svg>